<?xml version="1.0" encoding="UTF-8"?>
<svg version="1.1" xmlns="http://www.w3.org/2000/svg" width="100" height="100">
<path d="M0 0 C1.97203148 -0.00450165 1.97203148 -0.00450165 3.98390198 -0.00909424 C5.42018016 0.00291096 6.85645442 0.01539392 8.29272461 0.02832031 C9.76338 0.03137812 11.23403828 0.03325408 12.70469666 0.03399658 C15.78566585 0.0385986 18.86637352 0.05302125 21.94726562 0.07519531 C25.90079772 0.10350247 29.85412403 0.11440943 33.80774784 0.11887741 C36.84372525 0.12302957 39.87966088 0.13284494 42.91561699 0.1447525 C44.37369896 0.15045789 45.83178495 0.15521571 47.28987312 0.15901947 C49.32478357 0.16587723 51.35966384 0.18040625 53.39453125 0.1953125 C55.13302086 0.2055545 55.13302086 0.2055545 56.90663147 0.21600342 C59.63256836 0.35644531 59.63256836 0.35644531 61.63256836 1.35644531 C61.63256836 2.01644531 61.63256836 2.67644531 61.63256836 3.35644531 C62.29256836 3.35644531 62.95256836 3.35644531 63.63256836 3.35644531 C65.15056685 6.39244229 64.78864284 9.54852335 64.79370117 12.87963867 C64.80114853 14.0432769 64.80114853 14.0432769 64.80874634 15.23042297 C64.82337835 17.80238728 64.83017113 20.37428994 64.83569336 22.94628906 C64.84144329 24.72986351 64.84720104 26.51343793 64.85296631 28.29701233 C64.86347879 32.03875009 64.86932006 35.78046634 64.87280273 39.5222168 C64.87829264 44.32212221 64.90233012 49.12174468 64.93077469 53.92156124 C64.9493754 57.60609271 64.95460526 61.29055562 64.95613861 64.97513008 C64.95917072 66.74500643 64.96721796 68.51488142 64.98032379 70.28471184 C64.99733345 72.75798114 64.99551693 75.23055375 64.98901367 77.70385742 C64.99822845 78.43798859 65.00744324 79.17211975 65.01693726 79.92849731 C64.99387699 82.72085371 64.91708835 84.86145552 63.508255 87.31245422 C60.72282316 88.86280168 58.44174041 88.72287582 55.26513672 88.71289062 C53.29310524 88.71739227 53.29310524 88.71739227 51.28123474 88.72198486 C49.84495656 88.70997967 48.4086823 88.69749671 46.97241211 88.68457031 C45.50175672 88.68151251 44.03109844 88.67963655 42.56044006 88.67889404 C39.47947087 88.67429202 36.3987632 88.65986938 33.31787109 88.63769531 C29.364339 88.60938816 25.41101269 88.5984812 21.45738888 88.59401321 C18.42141147 88.58986105 15.38547584 88.58004568 12.34951973 88.56813812 C10.89143776 88.56243273 9.43335177 88.55767491 7.9752636 88.55387115 C5.94035315 88.54701339 3.90547288 88.53248438 1.87060547 88.51757812 C0.7116124 88.51075012 -0.44738068 88.50392212 -1.64149475 88.49688721 C-4.36743164 88.35644531 -4.36743164 88.35644531 -6.36743164 87.35644531 C-6.36743164 86.69644531 -6.36743164 86.03644531 -6.36743164 85.35644531 C-7.02743164 85.35644531 -7.68743164 85.35644531 -8.36743164 85.35644531 C-9.88543013 82.32044834 -9.52350612 79.16436728 -9.52856445 75.83325195 C-9.53352936 75.05749313 -9.53849426 74.28173431 -9.54360962 73.48246765 C-9.55824163 70.91050335 -9.56503441 68.33860069 -9.57055664 65.76660156 C-9.57630657 63.98302712 -9.58206432 62.19945269 -9.58782959 60.4158783 C-9.59834207 56.67414054 -9.60418334 52.93242428 -9.60766602 49.19067383 C-9.61315592 44.39076842 -9.6371934 39.59114594 -9.66563797 34.79132938 C-9.68423869 31.10679792 -9.68946854 27.42233501 -9.69100189 23.73776054 C-9.694034 21.9678842 -9.70208125 20.19800921 -9.71518707 18.42817879 C-9.73219673 15.95490948 -9.73038021 13.48233688 -9.72387695 11.0090332 C-9.73769913 9.90783646 -9.73769913 9.90783646 -9.75180054 8.78439331 C-9.72874027 5.99203691 -9.65195163 3.8514351 -8.24311829 1.4004364 C-5.45768644 -0.14991106 -3.17660369 -0.0099852 0 0 Z " fill="#6FBDFD" transform="translate(23.367431640625,6.6435546875)"/>
<path d="M0 0 C1.97203148 -0.00450165 1.97203148 -0.00450165 3.98390198 -0.00909424 C5.42018016 0.00291096 6.85645442 0.01539392 8.29272461 0.02832031 C9.76338 0.03137812 11.23403828 0.03325408 12.70469666 0.03399658 C15.78566585 0.0385986 18.86637352 0.05302125 21.94726562 0.07519531 C25.90079772 0.10350247 29.85412403 0.11440943 33.80774784 0.11887741 C36.84372525 0.12302957 39.87966088 0.13284494 42.91561699 0.1447525 C44.37369896 0.15045789 45.83178495 0.15521571 47.28987312 0.15901947 C49.32478357 0.16587723 51.35966384 0.18040625 53.39453125 0.1953125 C55.13302086 0.2055545 55.13302086 0.2055545 56.90663147 0.21600342 C59.63256836 0.35644531 59.63256836 0.35644531 61.63256836 1.35644531 C61.63256836 2.01644531 61.63256836 2.67644531 61.63256836 3.35644531 C62.29256836 3.35644531 62.95256836 3.35644531 63.63256836 3.35644531 C65.15056685 6.39244229 64.78864284 9.54852335 64.79370117 12.87963867 C64.80114853 14.0432769 64.80114853 14.0432769 64.80874634 15.23042297 C64.82337835 17.80238728 64.83017113 20.37428994 64.83569336 22.94628906 C64.84144329 24.72986351 64.84720104 26.51343793 64.85296631 28.29701233 C64.86347879 32.03875009 64.86932006 35.78046634 64.87280273 39.5222168 C64.87829264 44.32212221 64.90233012 49.12174468 64.93077469 53.92156124 C64.9493754 57.60609271 64.95460526 61.29055562 64.95613861 64.97513008 C64.95917072 66.74500643 64.96721796 68.51488142 64.98032379 70.28471184 C64.99733345 72.75798114 64.99551693 75.23055375 64.98901367 77.70385742 C64.99822845 78.43798859 65.00744324 79.17211975 65.01693726 79.92849731 C64.99387699 82.72085371 64.91708835 84.86145552 63.508255 87.31245422 C60.72282316 88.86280168 58.44174041 88.72287582 55.26513672 88.71289062 C53.29310524 88.71739227 53.29310524 88.71739227 51.28123474 88.72198486 C49.84495656 88.70997967 48.4086823 88.69749671 46.97241211 88.68457031 C45.50175672 88.68151251 44.03109844 88.67963655 42.56044006 88.67889404 C39.47947087 88.67429202 36.3987632 88.65986938 33.31787109 88.63769531 C29.364339 88.60938816 25.41101269 88.5984812 21.45738888 88.59401321 C18.42141147 88.58986105 15.38547584 88.58004568 12.34951973 88.56813812 C10.89143776 88.56243273 9.43335177 88.55767491 7.9752636 88.55387115 C5.94035315 88.54701339 3.90547288 88.53248438 1.87060547 88.51757812 C0.7116124 88.51075012 -0.44738068 88.50392212 -1.64149475 88.49688721 C-4.36743164 88.35644531 -4.36743164 88.35644531 -6.36743164 87.35644531 C-6.36743164 86.69644531 -6.36743164 86.03644531 -6.36743164 85.35644531 C-7.02743164 85.35644531 -7.68743164 85.35644531 -8.36743164 85.35644531 C-9.88543013 82.32044834 -9.52350612 79.16436728 -9.52856445 75.83325195 C-9.53352936 75.05749313 -9.53849426 74.28173431 -9.54360962 73.48246765 C-9.55824163 70.91050335 -9.56503441 68.33860069 -9.57055664 65.76660156 C-9.57630657 63.98302712 -9.58206432 62.19945269 -9.58782959 60.4158783 C-9.59834207 56.67414054 -9.60418334 52.93242428 -9.60766602 49.19067383 C-9.61315592 44.39076842 -9.6371934 39.59114594 -9.66563797 34.79132938 C-9.68423869 31.10679792 -9.68946854 27.42233501 -9.69100189 23.73776054 C-9.694034 21.9678842 -9.70208125 20.19800921 -9.71518707 18.42817879 C-9.73219673 15.95490948 -9.73038021 13.48233688 -9.72387695 11.0090332 C-9.73769913 9.90783646 -9.73769913 9.90783646 -9.75180054 8.78439331 C-9.72874027 5.99203691 -9.65195163 3.8514351 -8.24311829 1.4004364 C-5.45768644 -0.14991106 -3.17660369 -0.0099852 0 0 Z M-3.18276978 6.46078491 C-4.9718483 9.32361472 -4.74909293 11.71992359 -4.75561523 15.07519531 C-4.76087219 15.75356445 -4.76612915 16.43193359 -4.77154541 17.13085938 C-4.78474799 19.37295566 -4.77600702 21.61434182 -4.76586914 23.85644531 C-4.76788982 25.41438941 -4.7708012 26.97233258 -4.77456665 28.53027344 C-4.77899033 31.79533901 -4.77255773 35.06015836 -4.75854492 38.32519531 C-4.74145277 42.5119588 -4.75129375 46.69814538 -4.76926231 50.8848877 C-4.7800991 54.1019323 -4.77665435 57.31883996 -4.76887894 60.53588867 C-4.76687663 62.07967192 -4.7693373 63.62346757 -4.7763176 65.16723633 C-4.78393065 67.32439135 -4.77233136 69.48061009 -4.75561523 71.63769531 C-4.75322845 72.86552734 -4.75084167 74.09335938 -4.74838257 75.35839844 C-4.58740476 78.2988951 -4.58740476 78.2988951 -3.18276978 80.25210571 C-0.67891339 81.77529729 1.14084836 81.73749796 4.06616211 81.74462891 C5.73304077 81.75881363 5.73304077 81.75881363 7.43359375 81.77328491 C8.63363037 81.76721222 9.83366699 81.76113953 11.07006836 81.75488281 C12.30168701 81.75775299 13.53330566 81.76062317 14.80224609 81.76358032 C18.07604793 81.76614689 21.34942373 81.75406141 24.62316895 81.73730469 C26.63067221 81.73145084 28.63778205 81.73728326 30.64526367 81.74755859 C34.49538531 81.76605511 38.3449227 81.76385524 42.19506836 81.75488281 C43.39510498 81.76095551 44.5951416 81.7670282 45.83154297 81.77328491 C46.94279541 81.76382843 48.05404785 81.75437195 49.19897461 81.74462891 C50.17809814 81.74224213 51.15722168 81.73985535 52.16601562 81.73739624 C54.62718732 81.51857774 54.62718732 81.51857774 56.44790649 80.25210571 C58.23698501 77.3892759 58.01422965 74.99296704 58.02075195 71.63769531 C58.02600891 70.95932617 58.03126587 70.28095703 58.03668213 69.58203125 C58.04988471 67.33993496 58.04114374 65.09854881 58.03100586 62.85644531 C58.03302654 61.29850122 58.03593792 59.74055804 58.03970337 58.18261719 C58.04412705 54.91755162 58.03769445 51.65273227 58.02368164 48.38769531 C58.00658949 44.20093182 58.01643047 40.01474525 58.03439903 35.82800293 C58.04523582 32.61095833 58.04179107 29.39405066 58.03401566 26.17700195 C58.03201335 24.63321871 58.03447402 23.08942306 58.04145432 21.5456543 C58.04906737 19.38849927 58.03746808 17.23228054 58.02075195 15.07519531 C58.01717178 13.23344727 58.01717178 13.23344727 58.01351929 11.35449219 C57.85254148 8.41399552 57.85254148 8.41399552 56.44790649 6.46078491 C53.9440501 4.93759333 52.12428836 4.97539267 49.19897461 4.96826172 C47.53209595 4.954077 47.53209595 4.954077 45.83154297 4.93960571 C44.63150635 4.94567841 43.43146973 4.9517511 42.19506836 4.95800781 C40.96344971 4.95513763 39.73183105 4.95226746 38.46289062 4.9493103 C35.18908879 4.94674373 31.91571299 4.95882921 28.64196777 4.97558594 C26.63446451 4.98143978 24.62735467 4.97560736 22.61987305 4.96533203 C18.76975141 4.94683551 14.92021402 4.94903539 11.07006836 4.95800781 C9.27001343 4.94889877 9.27001343 4.94889877 7.43359375 4.93960571 C6.32234131 4.94906219 5.21108887 4.95851868 4.06616211 4.96826172 C2.59747681 4.97184189 2.59747681 4.97184189 1.09912109 4.97549438 C-1.3620506 5.19431289 -1.3620506 5.19431289 -3.18276978 6.46078491 Z " fill="#F1F1F1" transform="translate(23.367431640625,6.6435546875)"/>
<path d="M0 0 C1.11125244 -0.00945648 2.22250488 -0.01891296 3.36743164 -0.02865601 C5.16748657 -0.01954697 5.16748657 -0.01954697 7.00390625 -0.01025391 C8.2355249 -0.01312408 9.46714355 -0.01599426 10.73608398 -0.01895142 C14.00988582 -0.02151799 17.28326162 -0.00943251 20.55700684 0.00732422 C22.5645101 0.01317806 24.57161994 0.00734564 26.57910156 -0.00292969 C30.4292232 -0.02142621 34.27876059 -0.01922633 38.12890625 -0.01025391 C39.32894287 -0.0163266 40.52897949 -0.02239929 41.76538086 -0.02865601 C43.43225952 -0.01447128 43.43225952 -0.01447128 45.1328125 0 C46.6014978 0.00358017 46.6014978 0.00358017 48.09985352 0.00723267 C50.56640625 0.38818359 50.56640625 0.38818359 52.38174438 1.49252319 C54.1708229 4.355353 53.94806754 6.75166187 53.95458984 10.10693359 C53.9598468 10.78530273 53.96510376 11.46367187 53.97052002 12.16259766 C53.9837226 14.40469394 53.97498163 16.6460801 53.96484375 18.88818359 C53.96686443 20.44612769 53.96977581 22.00407086 53.97354126 23.56201172 C53.97796494 26.82707729 53.97153234 30.09189664 53.95751953 33.35693359 C53.94042738 37.54369708 53.95026836 41.72988366 53.96823692 45.91662598 C53.97907371 49.13367058 53.97562896 52.35057824 53.96785355 55.56762695 C53.96585124 57.1114102 53.96831191 58.65520585 53.97529221 60.19897461 C53.98290526 62.35612963 53.97130597 64.51234837 53.95458984 66.66943359 C53.95220306 67.89726563 53.94981628 69.12509766 53.94735718 70.39013672 C53.56640625 73.38818359 53.56640625 73.38818359 52.38174438 75.28384399 C49.877888 76.80703557 48.05812625 76.76923624 45.1328125 76.77636719 C44.02156006 76.78582367 42.91030762 76.79528015 41.76538086 76.80502319 C40.56534424 76.7989505 39.36530762 76.79287781 38.12890625 76.78662109 C36.8972876 76.78949127 35.66566895 76.79236145 34.39672852 76.7953186 C31.12292668 76.79788517 27.84955088 76.78579969 24.57580566 76.76904297 C22.5683024 76.76318912 20.56119256 76.76902154 18.55371094 76.77929688 C14.7035893 76.79779339 10.85405191 76.79559352 7.00390625 76.78662109 C5.80386963 76.79269379 4.60383301 76.79876648 3.36743164 76.80502319 C1.70055298 76.79083847 1.70055298 76.79083847 0 76.77636719 C-0.97912354 76.77398041 -1.95824707 76.77159363 -2.96704102 76.76913452 C-5.43359375 76.38818359 -5.43359375 76.38818359 -7.24893188 75.28384399 C-9.0380104 72.42101418 -8.81525504 70.02470532 -8.82177734 66.66943359 C-8.8270343 65.99106445 -8.83229126 65.31269531 -8.83770752 64.61376953 C-8.8509101 62.37167324 -8.84216913 60.13028709 -8.83203125 57.88818359 C-8.83405193 56.3302395 -8.83696331 54.77229632 -8.84072876 53.21435547 C-8.84515244 49.9492899 -8.83871984 46.68447055 -8.82470703 43.41943359 C-8.80761488 39.23267011 -8.81745586 35.04648353 -8.83542442 30.85974121 C-8.84626121 27.64269661 -8.84281646 24.42578895 -8.83504105 21.20874023 C-8.83303874 19.66495699 -8.83549941 18.12116134 -8.84247971 16.57739258 C-8.85009276 14.42023755 -8.83849347 12.26401882 -8.82177734 10.10693359 C-8.81939056 8.87910156 -8.81700378 7.65126953 -8.81454468 6.38623047 C-8.43359375 3.38818359 -8.43359375 3.38818359 -7.24893188 1.49252319 C-4.7450755 -0.03066839 -2.92531375 0.00713095 0 0 Z M2.56640625 3.38818359 C2.56640625 26.48818359 2.56640625 49.58818359 2.56640625 73.38818359 C10.30078125 73.40880859 18.03515625 73.42943359 26.00390625 73.45068359 C28.44853271 73.4597876 30.89315918 73.4688916 33.41186523 73.47827148 C35.33707626 73.4811905 37.2622879 73.48373909 39.1875 73.48583984 C40.19719849 73.49095581 41.20689697 73.49607178 42.24719238 73.50134277 C43.67835388 73.50152405 43.67835388 73.50152405 45.13842773 73.50170898 C45.97115707 73.5039296 46.80388641 73.50615021 47.66184998 73.50843811 C49.57673899 73.59823191 49.57673899 73.59823191 50.56640625 72.38818359 C50.66588818 70.27680459 50.69440263 68.16206074 50.69580078 66.04833984 C50.6975531 65.38655731 50.69930542 64.72477478 50.70111084 64.04293823 C50.70552842 61.8454937 50.70259172 59.64812901 50.69921875 57.45068359 C50.69989182 55.92993148 50.70086186 54.40917948 50.70211792 52.88842773 C50.70359476 49.69725523 50.70144077 46.50611067 50.69677734 43.31494141 C50.69108005 39.21553829 50.69435913 35.11620064 50.70034981 31.01679993 C50.70395579 27.87536115 50.70281667 24.73393801 50.70022202 21.59249878 C50.69955285 20.08055616 50.70038082 18.56861213 50.70270157 17.05667114 C50.7052287 14.94708472 50.70138669 12.83760572 50.69580078 10.72802734 C50.69500519 9.52525146 50.69420959 8.32247559 50.69338989 7.08325195 C50.87328218 4.47071174 50.87328218 4.47071174 49.56640625 3.38818359 C48.09286277 3.29514341 46.61490034 3.27072094 45.13842773 3.2746582 C43.70726624 3.27483948 43.70726624 3.27483948 42.24719238 3.27502441 C40.73264465 3.28269836 40.73264465 3.28269836 39.1875 3.29052734 C38.26457153 3.29153442 37.34164307 3.2925415 36.39074707 3.2935791 C32.92845424 3.29882865 29.46617905 3.31278979 26.00390625 3.32568359 C18.26953125 3.34630859 10.53515625 3.36693359 2.56640625 3.38818359 Z " fill="#413A6E" transform="translate(27.43359375,11.61181640625)"/>
<path d="M0 0 C2.31 0 4.62 0 7 0 C7 23.1 7 46.2 7 70 C4.69 70 2.38 70 0 70 C-1.84797201 68.15202799 -1.12775947 65.13203923 -1.12939453 62.66015625 C-1.13202301 61.66748245 -1.13202301 61.66748245 -1.13470459 60.65475464 C-1.13912217 58.4573101 -1.13618547 56.25994542 -1.1328125 54.0625 C-1.13348557 52.54174789 -1.13445561 51.02099588 -1.13571167 49.50024414 C-1.13718851 46.30907164 -1.13503452 43.11792708 -1.13037109 39.92675781 C-1.1246738 35.8273547 -1.12795288 31.72801704 -1.13394356 27.62861633 C-1.13754954 24.48717756 -1.13641042 21.34575442 -1.13381577 18.20431519 C-1.1331466 16.69237256 -1.13397457 15.18042854 -1.13629532 13.66848755 C-1.13882245 11.55890113 -1.13498044 9.44942213 -1.12939453 7.33984375 C-1.12859894 6.13706787 -1.12780334 4.93429199 -1.12698364 3.69506836 C-1 1 -1 1 0 0 Z " fill="#2B58A0" transform="translate(23,15)"/>
<path d="M0 0 C2.47683743 2.47683743 2.24649644 3.91146123 2.28216553 7.29241943 C2.27968811 8.02857483 2.27721069 8.76473022 2.2746582 9.52319336 C2.27976913 10.29895218 2.28488007 11.074711 2.29014587 11.87397766 C2.30407998 14.44601086 2.30308224 17.01777723 2.30078125 19.58984375 C2.30466617 21.37341919 2.30900041 23.15699371 2.31376648 24.94056702 C2.32123696 28.68233232 2.3209315 32.42400329 2.31567383 36.16577148 C2.3098789 40.96570285 2.32680665 45.76524838 2.3500185 50.56511593 C2.36473606 54.24966192 2.36563024 57.93411459 2.36250877 61.61868477 C2.36302301 63.38855313 2.36827989 65.15842657 2.37832069 66.92826653 C2.39062934 69.40157149 2.38392736 71.87411966 2.37231445 74.34741211 C2.37995819 75.08154327 2.38760193 75.81567444 2.39547729 76.572052 C2.36644461 79.3632955 2.28435345 81.50598659 0.87469482 83.95501709 C-1.90828698 85.50629273 -4.19232277 85.37403761 -7.36743164 85.37231445 C-9.33946312 85.38165764 -9.33946312 85.38165764 -11.35133362 85.39118958 C-12.78761168 85.38250242 -14.22388605 85.37318453 -15.66015625 85.36328125 C-17.13081359 85.36276265 -18.60147164 85.36328034 -20.0721283 85.36479187 C-23.15308999 85.36470217 -26.23378988 85.35427642 -29.31469727 85.33618164 C-33.26830287 85.3134744 -37.22152659 85.31295412 -41.17517948 85.31969929 C-44.21117054 85.32303666 -47.24707415 85.31641394 -50.28304863 85.30657005 C-51.74112936 85.30271523 -53.1992198 85.301571 -54.65730476 85.3031559 C-56.69221294 85.30352575 -58.72710842 85.28944717 -60.76196289 85.2746582 C-61.92095596 85.27005081 -63.07994904 85.26544342 -64.27406311 85.26069641 C-67 85 -67 85 -69 83 C-68.19233688 82.99413376 -67.38467377 82.98826752 -66.55253601 82.98222351 C-58.94501422 82.92434532 -51.33782177 82.85229728 -43.73059368 82.76428509 C-39.81952152 82.71953685 -35.90855459 82.68029089 -31.99731445 82.65356445 C-28.22347912 82.62757539 -24.45004781 82.5872051 -20.67646217 82.53681374 C-19.23600091 82.52011506 -17.79546972 82.50861947 -16.35492516 82.50238609 C-14.33896226 82.49277852 -12.32312559 82.46303898 -10.30737305 82.43237305 C-9.15931686 82.42126999 -8.01126068 82.41016693 -6.82841492 82.39872742 C-4.06098243 82.18389951 -4.06098243 82.18389951 -2.1328125 80.94750977 C-0.36702246 77.91179703 -0.56089114 74.82408686 -0.56762695 71.4074707 C-0.5574353 70.63650055 -0.54724365 69.8655304 -0.53674316 69.07119751 C-0.50654679 66.52265214 -0.49733729 63.97448221 -0.48828125 61.42578125 C-0.47143945 59.65885665 -0.45328989 57.89194407 -0.43388367 56.12504578 C-0.3863232 51.47427119 -0.35655305 46.82354532 -0.33044434 42.17260742 C-0.30066925 37.42682268 -0.25412848 32.68120591 -0.20898438 27.93554688 C-0.12288253 18.62378567 -0.05556791 9.31198996 0 0 Z " fill="#000000" transform="translate(86,10)"/>
<path d="M0 0 C1.32 0.33 2.64 0.66 4 1 C4 23.44 4 45.88 4 69 C2.02 69.495 2.02 69.495 0 70 C0 46.9 0 23.8 0 0 Z " fill="#D8ECFE" transform="translate(74,15)"/>
<path d="M0 0 C1.32 0.33 2.64 0.66 4 1 C4 23.44 4 45.88 4 69 C2.02 69.495 2.02 69.495 0 70 C0 46.9 0 23.8 0 0 Z " fill="#A3AFCC" transform="translate(71,15)"/>
<path d="M0 0 C2.97 0 5.94 0 9 0 C9.87803368 3.73164314 10.17423601 7.16680771 10 11 C9 12 9 12 6.93359375 12.09765625 C3.46679688 12.04882812 3.46679688 12.04882812 0 12 C0 8.04 0 4.08 0 0 Z " fill="#5575AE" transform="translate(47,42)"/>
<path d="M0 0 C3 1 3 1 4.16796875 2.7421875 C4.50441406 3.44601563 4.84085938 4.14984375 5.1875 4.875 C5.53167969 5.57367188 5.87585937 6.27234375 6.23046875 6.9921875 C7 9 7 9 7 12 C6.38511719 11.91621094 5.77023438 11.83242188 5.13671875 11.74609375 C4.32847656 11.64425781 3.52023438 11.54242188 2.6875 11.4375 C1.88699219 11.33308594 1.08648437 11.22867188 0.26171875 11.12109375 C-2.16817116 10.85244822 -2.16817116 10.85244822 -5 12 C-4.42365861 7.24518354 -2.44931479 4.02951788 0 0 Z " fill="#4D5F97" transform="translate(38,42)"/>
<path d="M0 0 C0 0.99 0 1.98 0 3 C-1.65 3 -3.3 3 -5 3 C-5.33 4.65 -5.66 6.3 -6 8 C-3.69 8.66 -1.38 9.32 1 10 C0.67 10.66 0.34 11.32 0 12 C-6.3782235 12.36103152 -6.3782235 12.36103152 -8.9375 10.875 C-10.50422245 8.11019567 -10.38976435 6.11811483 -10 3 C-7.7109263 -1.03954182 -4.21983723 -0.23885871 0 0 Z " fill="#413E73" transform="translate(69,42)"/>
<path d="M0 0 C1.98 0 3.96 0 6 0 C5.01 0.33 4.02 0.66 3 1 C3 2.32 3 3.64 3 5 C4.65 5 6.3 5 8 5 C7.67 5.99 7.34 6.98 7 8 C5.68 7.67 4.36 7.34 3 7 C3 8.32 3 9.64 3 11 C3.66 11.33 4.32 11.66 5 12 C3.35 12 1.7 12 0 12 C0 8.04 0 4.08 0 0 Z " fill="#434177" transform="translate(47,42)"/>
<path d="M0 0 C3 1 3 1 4.16796875 2.7421875 C4.50441406 3.44601563 4.84085938 4.14984375 5.1875 4.875 C5.53167969 5.57367188 5.87585937 6.27234375 6.23046875 6.9921875 C7 9 7 9 7 12 C6.01 11.67 5.02 11.34 4 11 C4 10.34 4 9.68 4 9 C3.34 8.67 2.68 8.34 2 8 C2 6.35 2 4.7 2 3 C1.01 3 0.02 3 -1 3 C-0.67 2.01 -0.34 1.02 0 0 Z " fill="#423F75" transform="translate(38,42)"/>
<path d="M0 0 C0 0.99 0 1.98 0 3 C-1.1446875 2.9690625 -1.1446875 2.9690625 -2.3125 2.9375 C-5.10185786 2.87057159 -5.10185786 2.87057159 -8 4 C-8.33 5.65 -8.66 7.3 -9 9 C-9.33 9 -9.66 9 -10 9 C-10.35789474 3.63157895 -10.35789474 3.63157895 -8.9375 1.125 C-5.99772876 -0.58196395 -3.32129197 -0.18799766 0 0 Z " fill="#464C82" transform="translate(69,42)"/>
</svg>
